<svg width="24" height="25" viewBox="0 0 24 25" fill="none" xmlns="http://www.w3.org/2000/svg">
<path d="M21.5069 8.76115C21.728 8.57908 21.7851 8.26384 21.6419 8.01579L20.17 5.46638C20.0268 5.21829 19.7252 5.11021 19.457 5.21064L18.9558 5.39841L21.0937 9.10126L21.5069 8.76115Z" fill="#BB2121"/>
<path d="M13.4671 16.0767C12.4154 16.4063 11.3565 16.8338 10.3937 17.3894L9.88428 17.6835L12.0675 21.4649C12.176 21.6529 12.3729 21.758 12.5754 21.758C12.6749 21.758 12.7756 21.7326 12.8679 21.6794L15.2359 20.3122C15.3705 20.2345 15.4687 20.1065 15.5089 19.9564C15.5491 19.8063 15.5281 19.6464 15.4504 19.5118L13.4671 16.0767Z" fill="#BB2121"/>
<path d="M4.50159 12.9858C4.1853 13.1684 3.95909 13.4632 3.86456 13.816C3.82358 13.9689 3.8096 14.1247 3.82163 14.278L2.29725 15.141C2.16131 15.218 2.0617 15.3461 2.02061 15.4969C1.97951 15.6476 2.00041 15.8086 2.0785 15.9439L3.45835 18.3338C3.56678 18.5217 3.7637 18.6269 3.96632 18.6269C4.06413 18.6269 4.16331 18.6024 4.25448 18.5508L5.75202 17.7029C5.99698 17.9007 6.30265 18.0077 6.61413 18.0077C6.84593 18.0077 7.08066 17.9488 7.29538 17.8248L8.79086 16.9615L5.9969 12.1226L4.50159 12.9858Z" fill="#BB2121"/>
<path d="M21.9214 12.8784L16.0984 2.79289C15.994 2.61207 15.8012 2.50051 15.5924 2.5C15.5919 2.5 15.5914 2.5 15.5909 2.5C15.3827 2.5 15.19 2.61059 15.0849 2.79047C15.0489 2.85211 11.4331 8.98411 7.01172 11.5367L9.80563 16.3756C12.2724 14.9514 15.2838 14.3152 17.3758 14.0322C19.6578 13.7235 21.3738 13.7566 21.4005 13.7572C21.6117 13.7622 21.81 13.6523 21.918 13.4702C22.026 13.288 22.0273 13.0618 21.9214 12.8784Z" fill="#BB2121"/>
</svg>
