<svg width="16" height="20" viewBox="0 0 16 20" fill="none" xmlns="http://www.w3.org/2000/svg">
<path d="M15.5357 8.57143H9.28572C8.71739 8.57143 8.17235 8.34566 7.77049 7.9438C7.36862 7.54194 7.14286 6.99689 7.14286 6.42857V0.178571C7.14286 0.131211 7.12404 0.085791 7.09056 0.0523024C7.05707 0.0188138 7.01165 0 6.96429 0H2.85714C2.09938 0 1.37266 0.30102 0.836838 0.836838C0.301019 1.37266 0 2.09938 0 2.85714V17.1429C0 17.9006 0.301019 18.6273 0.836838 19.1632C1.37266 19.699 2.09938 20 2.85714 20H12.8571C13.6149 20 14.3416 19.699 14.8774 19.1632C15.4133 18.6273 15.7143 17.9006 15.7143 17.1429V8.75C15.7143 8.70264 15.6955 8.65722 15.662 8.62373C15.6285 8.59024 15.5831 8.57143 15.5357 8.57143ZM11.4286 15.7143H4.28572C4.09627 15.7143 3.91459 15.639 3.78064 15.5051C3.64668 15.3711 3.57143 15.1894 3.57143 15C3.57143 14.8106 3.64668 14.6289 3.78064 14.4949C3.91459 14.361 4.09627 14.2857 4.28572 14.2857H11.4286C11.618 14.2857 11.7997 14.361 11.9337 14.4949C12.0676 14.6289 12.1429 14.8106 12.1429 15C12.1429 15.1894 12.0676 15.3711 11.9337 15.5051C11.7997 15.639 11.618 15.7143 11.4286 15.7143ZM11.4286 12.1429H4.28572C4.09627 12.1429 3.91459 12.0676 3.78064 11.9336C3.64668 11.7997 3.57143 11.618 3.57143 11.4286C3.57143 11.2391 3.64668 11.0574 3.78064 10.9235C3.91459 10.7895 4.09627 10.7143 4.28572 10.7143H11.4286C11.618 10.7143 11.7997 10.7895 11.9337 10.9235C12.0676 11.0574 12.1429 11.2391 12.1429 11.4286C12.1429 11.618 12.0676 11.7997 11.9337 11.9336C11.7997 12.0676 11.618 12.1429 11.4286 12.1429Z" fill="#BB2121"/>
<path d="M15.1436 6.99171L8.72352 0.571619C8.71104 0.559207 8.69516 0.550764 8.67789 0.54735C8.66062 0.543935 8.64273 0.545703 8.62646 0.55243C8.61019 0.559157 8.59627 0.570543 8.58646 0.585157C8.57664 0.599771 8.57136 0.616961 8.57129 0.634565V6.42966C8.57129 6.6191 8.64654 6.80078 8.7805 6.93473C8.91445 7.06869 9.09613 7.14394 9.28557 7.14394H15.0807C15.0983 7.14387 15.1155 7.13859 15.1301 7.12878C15.1447 7.11896 15.1561 7.10504 15.1628 7.08877C15.1695 7.07251 15.1713 7.05461 15.1679 7.03734C15.1645 7.02007 15.156 7.0042 15.1436 6.99171Z" fill="#BB2121"/>
</svg>
