<svg width="20" height="16" viewBox="0 0 20 16" fill="none" xmlns="http://www.w3.org/2000/svg">
<path d="M19.8056 7.24569C20.1039 6.92046 20.0545 6.45375 19.6875 6.20844L10.6737 0.183942C10.3066 -0.0612071 9.70776 -0.0613676 9.34072 0.183782L0.32459 6.20379C-0.0424523 6.44894 -0.111784 6.91564 0.186407 7.24104L2.03871 9.27678V11.9388C1.71773 12.0061 1.39675 12.3347 1.39675 12.728V13.7712C1.39675 14.2125 1.75593 14.6269 2.19254 14.692L9.20687 15.7391C9.6434 15.8043 10.3585 15.8043 10.7951 15.7391L17.7974 14.692C18.2339 14.6269 18.5693 14.2125 18.5693 13.7712V12.728C18.5693 12.3348 18.3286 12.0061 17.9274 11.9388V9.27855L19.8056 7.24569ZM3.32264 11.9062V10.6223H16.5631V11.9062H3.32264ZM7.3349 4.62408C7.3349 4.62408 7.76919 4.61862 7.87608 4.61862C8.80877 4.61862 9.92282 3.39945 10.0031 3.27074C10.0833 3.39945 11.1807 4.61862 12.1134 4.61862C12.2202 4.61862 12.6311 4.62408 12.6311 4.62408V6.66062C12.6311 6.82818 12.5889 6.99244 12.5272 7.15197C12.444 7.36734 12.3079 7.5739 12.1466 7.76825C11.9493 8.00602 11.7018 8.22123 11.4562 8.41992C10.8925 8.8762 10.008 9.27742 10.008 9.27742C10.008 9.27742 9.12285 8.8762 8.55913 8.41992C8.31358 8.22115 8.06152 8.00602 7.86428 7.76825C7.70291 7.5739 7.54779 7.36734 7.46458 7.15197C7.40279 6.99244 7.3349 6.82818 7.3349 6.66062V4.62408Z" fill="#BB2121"/>
</svg>
