<svg width="28" height="27" viewBox="0 0 28 27" fill="none" xmlns="http://www.w3.org/2000/svg">
<path d="M26.6761 9.0147C26.971 8.77194 27.0471 8.35162 26.8562 8.0209L24.8936 4.62168C24.7026 4.29089 24.3005 4.14678 23.9429 4.28069L23.2747 4.53105L26.1252 9.46819L26.6761 9.0147Z" fill="white"/>
<path d="M15.9563 18.7688C14.5541 19.2083 13.1421 19.7784 11.8585 20.5191L11.1792 20.9112L14.0901 25.9531C14.2348 26.2038 14.4974 26.3439 14.7674 26.3439C14.9 26.3439 15.0343 26.3101 15.1573 26.2391L18.3147 24.4162C18.4941 24.3126 18.6251 24.1419 18.6787 23.9418C18.7323 23.7416 18.7042 23.5284 18.6007 23.349L15.9563 18.7688Z" fill="white"/>
<path d="M4.0022 14.6478C3.58048 14.8913 3.27887 15.2844 3.15282 15.7547C3.09819 15.9586 3.07954 16.1663 3.09558 16.3707L1.06308 17.5215C0.881831 17.6241 0.749018 17.7949 0.694226 17.996C0.639435 18.1969 0.667299 18.4115 0.771414 18.5919L2.61121 21.7785C2.75579 22.029 3.01835 22.1693 3.2885 22.1693C3.41892 22.1693 3.55116 22.1366 3.67272 22.0678L5.66944 20.9373C5.99606 21.2011 6.40361 21.3437 6.81892 21.3437C7.12799 21.3437 7.44096 21.2652 7.72726 21.0999L9.72122 19.9487L5.99595 13.4968L4.0022 14.6478Z" fill="white"/>
<path d="M27.2287 14.5046L19.4647 1.05727C19.3254 0.816175 19.0685 0.667425 18.79 0.666748C18.7894 0.666748 18.7887 0.666748 18.788 0.666748C18.5104 0.666748 18.2535 0.814196 18.1134 1.05404C18.0654 1.13623 13.2442 9.31223 7.34912 12.7157L11.0743 19.1675C14.3634 17.2687 18.3786 16.4203 21.1678 16.0431C24.2106 15.6315 26.4985 15.6756 26.5342 15.6764C26.8157 15.683 27.0802 15.5365 27.2242 15.2936C27.3681 15.0508 27.3698 14.7492 27.2287 14.5046Z" fill="white"/>
</svg>
