<svg width="17" height="20" viewBox="0 0 17 20" fill="none" xmlns="http://www.w3.org/2000/svg">
<path d="M15.8332 5.00007C15.8332 2.93677 16.5732 1.92928 16.5799 1.92178C16.7082 1.75596 16.6932 1.5201 16.5449 1.37178L15.2949 0.121789C15.1641 -0.0090307 14.9624 -0.0373899 14.8007 0.0509689C14.7857 0.0584688 13.3466 0.833463 11.6666 0.833463C9.99578 0.833463 8.54661 0.0584688 8.53243 0.0509689C8.40826 -0.0157103 8.25744 -0.0165306 8.13412 0.0509689C8.11912 0.0584688 6.67995 0.833463 4.99996 0.833463C3.32915 0.833463 1.87999 0.0584688 1.86581 0.0509689C1.70413 -0.0365305 1.50249 -0.00821039 1.37249 0.122648L0.122499 1.37264C-0.0241794 1.51932 -0.0391793 1.75432 0.0858198 1.92013C0.0933197 1.93013 0.833314 2.93763 0.833314 5.00093C0.833314 5.93842 0.681635 6.58842 0.505817 7.34091C0.268318 8.35673 0 9.5084 0 11.6676C0 15.6259 3.0783 17.44 8.14826 19.9575C8.20658 19.985 8.26994 20 8.33326 20C8.39658 20 8.45994 19.985 8.51825 19.9567C13.5882 17.4392 16.6665 15.625 16.6665 11.6667C16.6665 9.50676 16.3973 8.35595 16.1607 7.34009C15.9857 6.58838 15.8332 5.93843 15.8332 5.00007ZM12.7949 8.62837L10.8783 10.545L11.6275 13.5417C11.6633 13.6034 11.6833 13.6742 11.6833 13.75C11.6833 13.9833 11.4541 14.1833 11.2583 14.1667H11.25C11.1791 14.1667 11.1075 14.1484 11.0433 14.1117L8.3333 12.5634L5.62332 14.1117C5.47832 14.1942 5.29832 14.1825 5.165 14.0817C5.03168 13.9809 4.97168 13.8109 5.0125 13.6484L5.78831 10.5434L3.87165 8.62672C3.75997 8.51505 3.72083 8.35005 3.77083 8.20005C3.82083 8.05005 3.95083 7.94173 4.10665 7.91923L6.79163 7.53591L7.94994 4.83425C8.08076 4.52758 8.58493 4.52758 8.71575 4.83425L9.87407 7.53591L12.559 7.91923C12.7157 7.94173 12.8457 8.05005 12.8949 8.20005C12.9449 8.35087 12.9058 8.51673 12.7949 8.62837Z" fill="#BB2121"/>
</svg>
