<svg width="34" height="32" viewBox="0 0 34 32" fill="none" xmlns="http://www.w3.org/2000/svg">
<path d="M33.6668 12.8334C33.8335 12 33.1668 11 32.3335 11L22.8335 9.66671L18.5002 1.00004C18.3335 0.666706 18.1668 0.50004 17.8335 0.333373C17.0002 -0.166627 16.0002 0.166706 15.5002 1.00004L11.3335 9.66671L1.8335 11C1.3335 11 1.00016 11.1667 0.833496 11.5C0.166829 12.1667 0.166829 13.1667 0.833496 13.8334L7.66683 20.5L6.00016 30C6.00016 30.3334 6.00016 30.6667 6.16683 31C6.66683 31.8334 7.66683 32.1667 8.50016 31.6667L17.0002 27.1667L25.5002 31.6667C25.6668 31.8334 26.0002 31.8334 26.3335 31.8334C26.5002 31.8334 26.5002 31.8334 26.6668 31.8334C27.5002 31.6667 28.1668 30.8334 28.0002 29.8334L26.3335 20.3334L33.1668 13.6667C33.5002 13.5 33.6668 13.1667 33.6668 12.8334Z" fill="#FFC804"/>
</svg>
