<svg width="29" height="34" viewBox="0 0 29 34" fill="none" xmlns="http://www.w3.org/2000/svg">
<path d="M27.0555 8.66677C27.0555 5.22793 28.2888 3.54877 28.2999 3.53627C28.5138 3.25991 28.4888 2.86681 28.2416 2.61961L26.1583 0.536294C25.9403 0.318262 25.6041 0.270997 25.3347 0.418261C25.3097 0.430761 22.911 1.72242 20.1111 1.72242C17.3264 1.72242 14.9111 0.430761 14.8875 0.418261C14.6805 0.307129 14.4291 0.305762 14.2236 0.418261C14.1986 0.430761 11.8 1.72242 9.00002 1.72242C6.21534 1.72242 3.80006 0.430761 3.77643 0.418261C3.50696 0.272429 3.1709 0.319629 2.95423 0.537726L0.870913 2.62104C0.626449 2.86551 0.601449 3.25717 0.809781 3.53354C0.822281 3.5502 2.0556 5.22936 2.0556 8.6682C2.0556 10.2307 1.80281 11.314 1.50978 12.5682C1.11395 14.2612 0.666748 16.1806 0.666748 19.7792C0.666748 26.3764 5.79724 29.4 14.2472 33.5958C14.3444 33.6416 14.45 33.6666 14.5555 33.6666C14.661 33.6666 14.7666 33.6416 14.8638 33.5944C23.3138 29.3986 28.4443 26.375 28.4443 19.7779C28.4443 16.1779 27.9956 14.2599 27.6012 12.5668C27.3096 11.3139 27.0555 10.2307 27.0555 8.66677ZM21.9917 14.7139L18.7972 17.9084L20.0458 22.9028C20.1055 23.0056 20.1389 23.1236 20.1389 23.25C20.1389 23.6389 19.7569 23.9722 19.4305 23.9445H19.4167C19.2986 23.9445 19.1792 23.9139 19.0722 23.8528L14.5556 21.2723L10.0389 23.8528C9.79728 23.9903 9.49728 23.9708 9.27508 23.8028C9.05288 23.6348 8.95288 23.3514 9.02092 23.0806L10.3139 17.9056L7.1195 14.7112C6.93337 14.5251 6.86813 14.2501 6.95147 14.0001C7.0348 13.7501 7.25146 13.5695 7.51116 13.532L11.9861 12.8932L13.9166 8.3904C14.1347 7.87927 14.975 7.87927 15.193 8.3904L17.1235 12.8932L21.5985 13.532C21.8596 13.5695 22.0763 13.7501 22.1582 14.0001C22.2417 14.2514 22.1764 14.5279 21.9917 14.7139Z" fill="#FFC804"/>
</svg>
